<svg xmlns="http://www.w3.org/2000/svg" xmlns:xlink="http://www.w3.org/1999/xlink" viewBox="0,0,256,256" width="144px" height="144px" fill-rule="nonzero"><g fill="none" fill-rule="nonzero" stroke="none" stroke-width="1" stroke-linecap="butt" stroke-linejoin="miter" stroke-miterlimit="10" stroke-dasharray="" stroke-dashoffset="0" font-family="none" font-weight="none" font-size="none" text-anchor="none" style="mix-blend-mode: normal"><g transform="scale(5.33333,5.33333)"><path d="M41,5h-34l3,34l14,4l14,-4l3,-34z" fill="#e65100"></path><path d="M24,8v31.9l11.2,-3.2l2.5,-28.7z" fill="#ff6d00"></path><path d="M24,25v-4h8.6l-0.7,11.5l-7.9,2.6v-4.2l4.1,-1.4l0.3,-4.5zM32.9,17l0.3,-4h-9.2v4z" fill="#ffffff"></path><path d="M24,30.9v4.2l-7.9,-2.6l-0.4,-5.5h4l0.2,2.5zM19.1,17h4.9v-4h-9.1l0.7,12h8.4v-4h-4.6z" fill="#eeeeee"></path></g></g><g fill="#fb5b28" fill-rule="nonzero" stroke="none" stroke-width="1" stroke-linecap="butt" stroke-linejoin="miter" stroke-miterlimit="10" stroke-dasharray="" stroke-dashoffset="0" font-family="none" font-weight="none" font-size="none" text-anchor="none" style="mix-blend-mode: normal"><g><path d="M101.74667,4.79v18.96h-3.9v-8.13h-7.62v8.13h-3.91v-18.96h3.91v7.68h7.62v-7.68zM119.05667,4.79v3.16h-5.81v15.8h-3.91v-15.8h-5.73v-3.16zM121.27667,4.79h5.11l4.87,13.75l4.84,-13.75h5.13v18.96h-3.92v-5.19l0.39,-8.94l-5.11,14.13h-2.69l-5.1,-14.12l0.39,8.93v5.19h-3.91zM148.54667,4.79v15.82h8.29v3.14h-12.2v-18.96zM168.86667,15.17l-2.99,-0.75l1.09,-9.63h10.63v3.14h-7.54l-0.47,4.07c0.89333,-0.47333 1.84333,-0.71 2.85,-0.71v0c1.80667,0 3.22333,0.56 4.25,1.68c1.02,1.12 1.53,2.68667 1.53,4.7v0c0,1.22 -0.25667,2.31333 -0.77,3.28c-0.52,0.97333 -1.26,1.72667 -2.22,2.26c-0.96667,0.53333 -2.10333,0.8 -3.41,0.8v0c-1.14667,0 -2.21,-0.23333 -3.19,-0.7c-0.98,-0.46667 -1.75667,-1.12 -2.33,-1.96c-0.56667,-0.84 -0.86667,-1.8 -0.9,-2.88v0h3.72c0.08,0.79333 0.35667,1.41 0.83,1.85c0.47333,0.43333 1.09,0.65 1.85,0.65v0c0.85333,0 1.51,-0.30333 1.97,-0.91c0.46,-0.61333 0.69,-1.48 0.69,-2.6v0c0,-1.08 -0.26333,-1.90667 -0.79,-2.48c-0.53333,-0.57333 -1.28667,-0.86 -2.26,-0.86v0c-0.89333,0 -1.61667,0.23667 -2.17,0.71v0z"></path></g></g></svg>