<svg xmlns="http://www.w3.org/2000/svg" xmlns:xlink="http://www.w3.org/1999/xlink" viewBox="0,0,256,256" width="144px" height="144px" fill-rule="nonzero"><g fill="none" fill-rule="nonzero" stroke="none" stroke-width="1" stroke-linecap="butt" stroke-linejoin="miter" stroke-miterlimit="10" stroke-dasharray="" stroke-dashoffset="0" font-family="none" font-weight="none" font-size="none" text-anchor="none" style="mix-blend-mode: normal"><g transform="scale(5.33333,5.33333)"><path d="M6,42v-36h36v36z" fill="#f7df1e"></path><path d="M29.538,32.947c0.692,1.124 1.444,2.201 3.037,2.201c1.338,0 2.04,-0.665 2.04,-1.585c0,-1.101 -0.726,-1.492 -2.198,-2.133l-0.807,-0.344c-2.329,-0.988 -3.878,-2.226 -3.878,-4.841c0,-2.41 1.845,-4.244 4.728,-4.244c2.053,0 3.528,0.711 4.592,2.573l-2.514,1.607c-0.553,-0.988 -1.151,-1.377 -2.078,-1.377c-0.946,0 -1.545,0.597 -1.545,1.377c0,0.964 0.6,1.354 1.985,1.951l0.807,0.344c2.745,1.169 4.293,2.363 4.293,5.047c0,2.892 -2.284,4.477 -5.35,4.477c-2.999,0 -4.702,-1.505 -5.65,-3.368zM17.952,33.029c0.506,0.906 1.275,1.603 2.381,1.603c1.058,0 1.667,-0.418 1.667,-2.043v-10.589h3.333v11.101c0,3.367 -1.953,4.899 -4.805,4.899c-2.577,0 -4.437,-1.746 -5.195,-3.368z" fill="#000001"></path></g></g><g fill="#f2e003" fill-rule="nonzero" stroke="none" stroke-width="1" stroke-linecap="butt" stroke-linejoin="miter" stroke-miterlimit="10" stroke-dasharray="" stroke-dashoffset="0" font-family="none" font-weight="none" font-size="none" text-anchor="none" style="mix-blend-mode: normal"><g><path d="M63.225,17.04v-10.5h3.12v10.5c0,0.96 -0.21333,1.81 -0.64,2.55c-0.42667,0.74 -1.02667,1.31333 -1.8,1.72c-0.78,0.4 -1.66,0.6 -2.64,0.6v0c-1.60667,0 -2.85667,-0.40667 -3.75,-1.22c-0.89333,-0.82 -1.34,-1.97667 -1.34,-3.47v0h3.14c0,0.74667 0.15667,1.29667 0.47,1.65c0.31333,0.35333 0.80667,0.53 1.48,0.53v0c0.6,0 1.07667,-0.20333 1.43,-0.61c0.35333,-0.41333 0.53,-0.99667 0.53,-1.75zM78.405,21.7h-3.05c-0.13333,-0.26667 -0.23333,-0.60333 -0.3,-1.01v0c-0.72667,0.81333 -1.67333,1.22 -2.84,1.22v0c-1.10667,0 -2.02333,-0.32 -2.75,-0.96c-0.72,-0.63333 -1.08,-1.43667 -1.08,-2.41v0c0,-1.19333 0.44,-2.11 1.32,-2.75c0.88667,-0.64 2.16667,-0.96333 3.84,-0.97v0h1.39v-0.65c0,-0.52 -0.13333,-0.93667 -0.4,-1.25c-0.26667,-0.31333 -0.69,-0.47 -1.27,-0.47v0c-0.50667,0 -0.90333,0.12333 -1.19,0.37c-0.28667,0.24 -0.43,0.57333 -0.43,1v0h-3.01c0,-0.65333 0.2,-1.25667 0.6,-1.81c0.4,-0.56 0.97,-0.99667 1.71,-1.31c0.73333,-0.32 1.56,-0.48 2.48,-0.48v0c1.38667,0 2.48667,0.35 3.3,1.05c0.82,0.7 1.23,1.68 1.23,2.94v0v4.89c0.00667,1.06667 0.15667,1.87667 0.45,2.43v0zM72.865,19.61v0c0.44667,0 0.85667,-0.1 1.23,-0.3c0.38,-0.19333 0.66,-0.45667 0.84,-0.79v0v-1.94h-1.13c-1.50667,0 -2.30667,0.52 -2.4,1.56v0l-0.01,0.18c0,0.37333 0.13,0.68333 0.39,0.93c0.26667,0.24 0.62667,0.36 1.08,0.36zM82.235,10.43l2.09,7.6l2.1,-7.6h3.14l-3.8,11.27h-2.87l-3.81,-11.27zM100.305,21.7h-3.04c-0.14,-0.26667 -0.24,-0.60333 -0.3,-1.01v0c-0.73333,0.81333 -1.68333,1.22 -2.85,1.22v0c-1.1,0 -2.01333,-0.32 -2.74,-0.96c-0.72667,-0.63333 -1.09,-1.43667 -1.09,-2.41v0c0,-1.19333 0.44333,-2.11 1.33,-2.75c0.88667,-0.64 2.16667,-0.96333 3.84,-0.97v0h1.38v-0.65c0,-0.52 -0.13333,-0.93667 -0.4,-1.25c-0.26667,-0.31333 -0.68667,-0.47 -1.26,-0.47v0c-0.50667,0 -0.90667,0.12333 -1.2,0.37c-0.28667,0.24 -0.43,0.57333 -0.43,1v0h-3.01c0,-0.65333 0.20333,-1.25667 0.61,-1.81c0.4,-0.56 0.96667,-0.99667 1.7,-1.31c0.74,-0.32 1.56667,-0.48 2.48,-0.48v0c1.39333,0 2.49667,0.35 3.31,1.05c0.81333,0.7 1.22,1.68 1.22,2.94v0v4.89c0.00667,1.06667 0.15667,1.87667 0.45,2.43v0zM94.775,19.61v0c0.44667,0 0.85667,-0.1 1.23,-0.3c0.37333,-0.19333 0.65,-0.45667 0.83,-0.79v0v-1.94h-1.12c-1.50667,0 -2.31,0.52 -2.41,1.56v0l-0.01,0.18c0,0.37333 0.13333,0.68333 0.4,0.93c0.26,0.24 0.62,0.36 1.08,0.36zM110.235,17.72v0c0,-0.58667 -0.21,-1.04 -0.63,-1.36c-0.41333,-0.31333 -1.16333,-0.64667 -2.25,-1c-1.08,-0.34667 -1.93667,-0.69 -2.57,-1.03v0c-1.72,-0.93333 -2.58,-2.18667 -2.58,-3.76v0c0,-0.82 0.23,-1.55 0.69,-2.19c0.46,-0.64667 1.12333,-1.15 1.99,-1.51c0.86667,-0.36 1.83667,-0.54 2.91,-0.54v0c1.08667,0 2.05333,0.19667 2.9,0.59c0.84667,0.39333 1.50333,0.94667 1.97,1.66c0.46667,0.71333 0.7,1.52667 0.7,2.44v0h-3.12c0,-0.7 -0.22,-1.24 -0.66,-1.62c-0.43333,-0.38667 -1.04667,-0.58 -1.84,-0.58v0c-0.76667,0 -1.36,0.16 -1.78,0.48c-0.42667,0.32667 -0.64,0.75333 -0.64,1.28v0c0,0.49333 0.25,0.90667 0.75,1.24c0.49333,0.33333 1.22333,0.64667 2.19,0.94v0c1.78,0.53333 3.07667,1.19667 3.89,1.99c0.80667,0.78667 1.21,1.77 1.21,2.95v0c0,1.31333 -0.49333,2.34333 -1.48,3.09c-0.99333,0.74667 -2.33333,1.12 -4.02,1.12v0c-1.16667,0 -2.22667,-0.21333 -3.18,-0.64c-0.96,-0.42667 -1.69333,-1.01 -2.2,-1.75c-0.5,-0.74667 -0.75,-1.61 -0.75,-2.59v0h3.13c0,1.67333 1,2.51 3,2.51v0c0.74667,0 1.32667,-0.15 1.74,-0.45c0.42,-0.3 0.63,-0.72333 0.63,-1.27zM119.975,19.48v0c0.55333,0 1.00333,-0.15 1.35,-0.45c0.34667,-0.30667 0.52667,-0.71333 0.54,-1.22v0h2.83c-0.00667,0.76 -0.21667,1.46 -0.63,2.1c-0.40667,0.63333 -0.96667,1.12667 -1.68,1.48c-0.71333,0.34667 -1.5,0.52 -2.36,0.52v0c-1.61333,0 -2.88333,-0.51 -3.81,-1.53c-0.93333,-1.02667 -1.4,-2.44333 -1.4,-4.25v0v-0.2c0,-1.73333 0.46333,-3.11667 1.39,-4.15c0.92,-1.04 2.18667,-1.56 3.8,-1.56v0c1.40667,0 2.53667,0.40333 3.39,1.21c0.85333,0.8 1.28667,1.86667 1.3,3.2v0h-2.83c-0.01333,-0.58 -0.19333,-1.05333 -0.54,-1.42c-0.34667,-0.36667 -0.80333,-0.55 -1.37,-0.55v0c-0.7,0 -1.23,0.25667 -1.59,0.77c-0.36,0.50667 -0.54,1.33333 -0.54,2.48v0v0.31c0,1.16 0.17667,1.99333 0.53,2.5c0.36,0.50667 0.9,0.76 1.62,0.76zM132.785,10.36l-0.04,2.9c-0.40667,-0.06 -0.76667,-0.09 -1.08,-0.09v0c-1.14,0 -1.88667,0.38667 -2.24,1.16v0v7.37h-3.01v-11.27h2.84l0.08,1.35c0.60667,-1.04 1.44333,-1.56 2.51,-1.56v0c0.33333,0 0.64667,0.04667 0.94,0.14zM137.365,10.43v11.27h-3.02v-11.27zM134.175,7.52v0c0,-0.45333 0.15,-0.82667 0.45,-1.12c0.3,-0.29333 0.71,-0.44 1.23,-0.44v0c0.52,0 0.93,0.14667 1.23,0.44c0.30667,0.29333 0.46,0.66667 0.46,1.12v0c0,0.45333 -0.15333,0.82667 -0.46,1.12c-0.31333,0.29333 -0.72333,0.44 -1.23,0.44c-0.50667,0 -0.91333,-0.14667 -1.22,-0.44c-0.30667,-0.29333 -0.46,-0.66667 -0.46,-1.12zM149.995,16.02v0.15c0,1.74 -0.39333,3.13 -1.18,4.17c-0.78667,1.04667 -1.85333,1.57 -3.2,1.57v0c-1.13333,0 -2.05333,-0.39667 -2.76,-1.19v0v5.32h-3.01v-15.61h2.8l0.1,1.11c0.72667,-0.88 1.67667,-1.32 2.85,-1.32v0c1.39333,0 2.47333,0.51667 3.24,1.55c0.77333,1.02667 1.16,2.44333 1.16,4.25zM146.985,15.95v0c0,-1.04667 -0.18667,-1.85333 -0.56,-2.42c-0.37333,-0.57333 -0.91333,-0.86 -1.62,-0.86v0c-0.94,0 -1.59,0.36333 -1.95,1.09v0v4.61c0.37333,0.74 1.03,1.11 1.97,1.11v0c1.44,0 2.16,-1.17667 2.16,-3.53zM152.455,7.66h3.01v2.77h1.93v2.21h-1.93v5.63c0,0.41333 0.08,0.71 0.24,0.89c0.16,0.18 0.46333,0.27 0.91,0.27v0c0.33333,0 0.63,-0.02333 0.89,-0.07v0v2.28c-0.59333,0.18 -1.2,0.27 -1.82,0.27v0c-2.11333,0 -3.19,-1.06667 -3.23,-3.2v0v-6.07h-1.65v-2.21h1.65zM173.705,12.68v2.45h-6v4.06h7.04v2.51h-10.17v-15.16h10.15v2.53h-7.02v3.61zM184.445,17.72v0c0,-0.58667 -0.21,-1.04 -0.63,-1.36c-0.41333,-0.31333 -1.16333,-0.64667 -2.25,-1c-1.08,-0.34667 -1.93667,-0.69 -2.57,-1.03v0c-1.72,-0.93333 -2.58,-2.18667 -2.58,-3.76v0c0,-0.82 0.23,-1.55 0.69,-2.19c0.46,-0.64667 1.12333,-1.15 1.99,-1.51c0.86667,-0.36 1.83667,-0.54 2.91,-0.54v0c1.08667,0 2.05333,0.19667 2.9,0.59c0.84667,0.39333 1.50333,0.94667 1.97,1.66c0.46667,0.71333 0.7,1.52667 0.7,2.44v0h-3.12c0,-0.7 -0.22,-1.24 -0.66,-1.62c-0.43333,-0.38667 -1.04667,-0.58 -1.84,-0.58v0c-0.76667,0 -1.36,0.16 -1.78,0.48c-0.42667,0.32667 -0.64,0.75333 -0.64,1.28v0c0,0.49333 0.25,0.90667 0.75,1.24c0.49333,0.33333 1.22333,0.64667 2.19,0.94v0c1.78,0.53333 3.07333,1.19667 3.88,1.99c0.81333,0.78667 1.22,1.77 1.22,2.95v0c0,1.31333 -0.49667,2.34333 -1.49,3.09c-0.99333,0.74667 -2.33,1.12 -4.01,1.12v0c-1.16667,0 -2.22667,-0.21333 -3.18,-0.64c-0.96,-0.42667 -1.69333,-1.01 -2.2,-1.75c-0.5,-0.74667 -0.75,-1.61 -0.75,-2.59v0h3.13c0,1.67333 1,2.51 3,2.51v0c0.74667,0 1.32667,-0.15 1.74,-0.45c0.42,-0.3 0.63,-0.72333 0.63,-1.27zM197.035,6.38h0.5v2.48h-0.29c-1.36,0.02 -2.45667,0.37333 -3.29,1.06c-0.82667,0.68667 -1.32333,1.64333 -1.49,2.87v0c0.80667,-0.82 1.82333,-1.23 3.05,-1.23v0c1.32,0 2.37,0.47 3.15,1.41c0.77333,0.94667 1.16,2.19 1.16,3.73v0c0,0.98667 -0.21333,1.88 -0.64,2.68c-0.42667,0.8 -1.03,1.42333 -1.81,1.87c-0.78,0.44 -1.66333,0.66 -2.65,0.66v0c-1.6,0 -2.89,-0.55333 -3.87,-1.66c-0.98,-1.11333 -1.47,-2.59667 -1.47,-4.45v0v-1.09c0,-1.64 0.31,-3.09333 0.93,-4.36c0.62,-1.26 1.51,-2.23333 2.67,-2.92c1.16667,-0.69333 2.51667,-1.04333 4.05,-1.05zM194.595,13.97v0c-0.48667,0 -0.92667,0.12667 -1.32,0.38c-0.39333,0.25333 -0.68333,0.59 -0.87,1.01v0v0.92c0,1.00667 0.19667,1.79333 0.59,2.36c0.39333,0.56 0.95,0.84 1.67,0.84v0c0.64667,0 1.16667,-0.25333 1.56,-0.76c0.4,-0.51333 0.6,-1.17667 0.6,-1.99v0c0,-0.82 -0.2,-1.48667 -0.6,-2c-0.40667,-0.50667 -0.95,-0.76 -1.63,-0.76z"></path></g></g></svg>