<svg xmlns="http://www.w3.org/2000/svg" xmlns:xlink="http://www.w3.org/1999/xlink" viewBox="0,0,256,256" width="144px" height="144px" fill-rule="nonzero"><g fill="#80deea" fill-rule="nonzero" stroke="none" stroke-width="1" stroke-linecap="butt" stroke-linejoin="miter" stroke-miterlimit="10" stroke-dasharray="" stroke-dashoffset="0" font-family="none" font-weight="none" font-size="none" text-anchor="none" style="mix-blend-mode: normal"><g transform="scale(5.33333,5.33333)"><path d="M24,34c-12.9,0 -23,-4.4 -23,-10c0,-5.6 10.1,-10 23,-10c12.9,0 23,4.4 23,10c0,5.6 -10.1,10 -23,10zM24,16c-12.6,0 -21,4.1 -21,8c0,3.9 8.4,8 21,8c12.6,0 21,-4.1 21,-8c0,-3.9 -8.4,-8 -21,-8z"></path><path d="M15.1,44.6c-1,0 -1.8,-0.2 -2.6,-0.7c-4.9,-2.8 -3.6,-13.7 2.8,-24.9v0c3,-5.2 6.7,-9.6 10.3,-12.4c3.9,-3 7.4,-3.9 9.8,-2.5c2.5,1.4 3.4,4.9 2.8,9.8c-0.6,4.6 -2.6,10 -5.6,15.2c-3,5.2 -6.7,9.6 -10.3,12.4c-2.6,2 -5.1,3.1 -7.2,3.1zM32.9,5.4c-1.6,0 -3.7,0.9 -6,2.7c-3.4,2.7 -6.9,6.9 -9.8,11.9v0c-6.3,10.9 -6.9,20.3 -3.6,22.2c1.7,1 4.5,0.1 7.6,-2.3c3.4,-2.7 6.9,-6.9 9.8,-11.9c2.9,-5 4.8,-10.1 5.4,-14.4c0.5,-4 -0.1,-6.8 -1.8,-7.8c-0.5,-0.2 -1,-0.4 -1.6,-0.4z"></path><path d="M33,44.6c-5,0 -12.2,-6.1 -17.6,-15.6c-6.5,-11.2 -7.8,-22.1 -2.9,-24.9v0c4.9,-2.8 13.7,3.7 20.2,14.9c3,5.2 5,10.6 5.6,15.2c0.7,4.9 -0.3,8.3 -2.8,9.8c-0.8,0.4 -1.6,0.6 -2.5,0.6zM13.5,5.8c-3.3,1.9 -2.7,11.3 3.6,22.2c6.3,10.9 14.1,16.1 17.4,14.2c1.7,-1 2.3,-3.8 1.8,-7.8c-0.6,-4.3 -2.5,-9.4 -5.4,-14.4c-6.3,-10.9 -14.1,-16.1 -17.4,-14.2z"></path><circle cx="24" cy="24" r="4"></circle></g></g><g fill-opacity="0.61961" fill="#0fd1e0" fill-rule="nonzero" stroke="none" stroke-width="1" stroke-linecap="butt" stroke-linejoin="miter" stroke-miterlimit="10" stroke-dasharray="" stroke-dashoffset="0" font-family="none" font-weight="none" font-size="none" text-anchor="none" style="mix-blend-mode: normal"><g><path d="M105.355,18.41667l-3.56,-6.94h-3.11v6.94h-3.91v-18.96h7.05c2.24,0 3.96667,0.5 5.18,1.5c1.21333,0.99333 1.82,2.40333 1.82,4.23v0c0,1.29333 -0.28,2.37 -0.84,3.23c-0.56,0.86667 -1.40667,1.55667 -2.54,2.07v0l4.1,7.74v0.19zM98.685,2.61667v5.69h3.15c0.98,0 1.74,-0.25 2.28,-0.75c0.54,-0.49333 0.81,-1.18 0.81,-2.06v0c0,-0.89333 -0.25667,-1.59667 -0.77,-2.11c-0.50667,-0.51333 -1.28333,-0.77 -2.33,-0.77v0zM118.035,18.67667v0c-2.06667,0 -3.75,-0.63333 -5.05,-1.9c-1.29333,-1.27333 -1.94,-2.96333 -1.94,-5.07v0v-0.36c0,-1.42 0.27333,-2.68667 0.82,-3.8c0.54667,-1.11333 1.32,-1.97333 2.32,-2.58c1,-0.6 2.14333,-0.9 3.43,-0.9v0c1.92667,0 3.44333,0.60667 4.55,1.82c1.10667,1.21333 1.66,2.93667 1.66,5.17v0v1.54h-8.97c0.12,0.92 0.48667,1.65667 1.1,2.21c0.61333,0.55333 1.39,0.83 2.33,0.83v0c1.44667,0 2.57667,-0.52333 3.39,-1.57v0l1.85,2.07c-0.56,0.8 -1.32333,1.42333 -2.29,1.87c-0.96,0.44667 -2.02667,0.67 -3.2,0.67zM117.605,7.10667v0c-0.74667,0 -1.35333,0.25333 -1.82,0.76c-0.46,0.50667 -0.75667,1.22667 -0.89,2.16v0h5.23v-0.3c-0.01333,-0.83333 -0.23667,-1.47667 -0.67,-1.93c-0.43333,-0.46 -1.05,-0.69 -1.85,-0.69zM137.925,18.41667h-3.8c-0.17333,-0.34 -0.3,-0.76333 -0.38,-1.27v0c-0.90667,1.02 -2.09,1.53 -3.55,1.53v0c-1.38,0 -2.52333,-0.4 -3.43,-1.2c-0.90667,-0.8 -1.36,-1.80667 -1.36,-3.02v0c0,-1.49333 0.55333,-2.64 1.66,-3.44c1.10667,-0.8 2.70667,-1.20333 4.8,-1.21v0h1.73v-0.81c0,-0.64667 -0.16667,-1.16667 -0.5,-1.56c-0.33333,-0.39333 -0.86333,-0.59 -1.59,-0.59v0c-0.63333,0 -1.13,0.15333 -1.49,0.46c-0.36,0.30667 -0.54,0.72333 -0.54,1.25v0h-3.76c0,-0.81333 0.25333,-1.57 0.76,-2.27c0.5,-0.69333 1.21,-1.23667 2.13,-1.63c0.92,-0.39333 1.95333,-0.59 3.1,-0.59v0c1.73333,0 3.11,0.43667 4.13,1.31c1.02,0.86667 1.53,2.09 1.53,3.67v0v6.11c0.01333,1.34 0.2,2.35333 0.56,3.04v0zM131.015,15.79667v0c0.55333,0 1.06667,-0.12333 1.54,-0.37c0.46667,-0.24667 0.81333,-0.58 1.04,-1v0v-2.42h-1.41c-1.88,0 -2.88333,0.65 -3.01,1.95v0l-0.01,0.22c0,0.47333 0.16667,0.86 0.5,1.16c0.32667,0.30667 0.77667,0.46 1.35,0.46zM146.115,15.63667v0c0.7,0 1.26667,-0.19 1.7,-0.57c0.43333,-0.38 0.65667,-0.88667 0.67,-1.52v0h3.53c-0.00667,0.95333 -0.26667,1.82667 -0.78,2.62c-0.51333,0.79333 -1.21333,1.41 -2.1,1.85c-0.89333,0.44 -1.87667,0.66 -2.95,0.66v0c-2.01333,0 -3.60333,-0.64 -4.77,-1.92c-1.16,-1.28 -1.74,-3.05 -1.74,-5.31v0v-0.25c0,-2.16667 0.57667,-3.89667 1.73,-5.19c1.15333,-1.29333 2.73667,-1.94 4.75,-1.94v0c1.76667,0 3.18,0.5 4.24,1.5c1.06667,1.00667 1.60667,2.34333 1.62,4.01v0h-3.53c-0.01333,-0.73333 -0.23667,-1.32667 -0.67,-1.78c-0.43333,-0.46 -1.00667,-0.69 -1.72,-0.69v0c-0.88,0 -1.54333,0.32 -1.99,0.96c-0.44667,0.64 -0.67,1.67667 -0.67,3.11v0v0.39c0,1.44667 0.22333,2.48667 0.67,3.12c0.44,0.63333 1.11,0.95 2.01,0.95zM154.905,0.85667h3.77v3.47h2.4v2.76h-2.4v7.03c0,0.52 0.1,0.89333 0.3,1.12c0.19333,0.22667 0.57333,0.34 1.14,0.34v0c0.42,0 0.79,-0.03 1.11,-0.09v0v2.85c-0.74,0.22667 -1.5,0.34 -2.28,0.34v0c-2.64,0 -3.98667,-1.33333 -4.04,-4v0v-7.59h-2.05v-2.76h2.05z"></path></g></g></svg>